<?xml version="1.0" encoding="utf-8"?>
<!-- Generator: Adobe Illustrator 26.1.0, SVG Export Plug-In . SVG Version: 6.00 Build 0)  -->
<svg version="1.1" id="Layer_1" xmlns="http://www.w3.org/2000/svg" xmlns:xlink="http://www.w3.org/1999/xlink" x="0px" y="0px"
	 viewBox="0 0 713.8 159.5" style="enable-background:new 0 0 713.8 159.5;" xml:space="preserve">
<style type="text/css">
	.st0{fill:#FFF173;}
</style>
<g>
	<path class="st0" d="M67.4,132.3C85.8,128,95.3,111.9,90,89.2c-4.8-20.6-20.4-32.2-38.2-28C33.5,65.4,24,82,29.2,104.3
		C34.1,125,50.3,136.3,67.4,132.3z M66.6,123.8c-11.1,2.6-21.6-7.1-25.7-24.7c-4-17.1,2.4-27.4,11.6-29.5
		c11.7-2.7,21.6,7.3,25.7,24.8C82.3,111.7,75.9,121.7,66.6,123.8z"/>
	<path class="st0" d="M128.5,119.5c4.1-0.8,6.4-3.1,7.3-8.3l6.1-35.2c0.5-2.5,1.7-3.8,2.9-4.8c1.7-1.4,2.5-2.4,2.1-4.5
		c-0.5-2.7-3.4-4.2-11.4-2.7c-7.1,1.3-10,3.7-9.5,6.3c0.3,1.7,1.5,2.8,4.2,3.1c1.8,0.2,2.5,1.1,2.7,2.3c0.2,0.9,0.1,2,0,2.9
		c-1.3,9.7-2.8,20.4-4.5,30.6c-5.3-9.4-11.2-19.9-15.1-26.9c-0.8-1.4-1.6-2.6-1.8-3.7c-0.2-1.2,0.7-2.3,1.7-3c1.5-1.2,2-2.1,1.7-3.7
		c-0.5-2.7-4.2-3.4-12.4-1.9c-7.8,1.5-10.8,3.9-10.3,6.8c0.4,2.3,2,2.9,3.7,3.5c1.7,0.5,3.1,1.3,4.5,3.6
		c2.9,4.8,15.9,26.8,19.1,31.4C121.9,119.1,124.1,120.3,128.5,119.5z"/>
	<path class="st0" d="M195.4,90.1c-0.5,0.1-0.8,0.6-1.7,2c-1.3,2-6.1,8.1-13.4,9.1c-5,0.7-12.8-0.9-15.2-12.1l30.7-4.9
		c0.2-2.1,0.3-5-0.2-8.6c-1.9-13-10.9-19.2-22.6-17.5c-14.7,2.1-22.2,16.1-20.1,30.5c2.6,18,15.1,24.1,26.8,22.4
		c11.3-1.6,19-9.1,18-16.6C197.3,91.6,196.3,90,195.4,90.1z M173.6,65.7c4.7-0.7,9.5,2.6,10.7,11.1c0.2,1,0.2,1.8,0.2,2.4l-20.2,4.1
		C163.3,73.7,167.3,66.6,173.6,65.7z"/>
	<path class="st0" d="M228.6,51.3c-3.6,0.4-7.2,3.9-8,15.6l-0.9-0.1c-0.1-1.7-0.3-4-0.5-6.6c-0.6-5.6-2.5-7.5-6-7.2
		c-6.8,0.8-11.5,6.1-10.9,11.2c0.2,1.6,0.9,2.2,2.3,2.1c1.1-0.1,1.7-0.5,2.8-0.6c1.3-0.1,2.1,0.8,2.3,2.6l2.9,25.9
		c0.2,2.1-1.1,2.9-2.8,3.8c-1.7,0.9-2.9,2.2-2.6,4.2c0.4,3.3,4.5,4.7,12.5,3.8c8.2-0.9,11.5-3,11.1-6.7c-0.2-1.6-1.4-2.7-3.4-3.2
		c-2.7-0.8-3.3-1.2-3.5-2.7l-2.1-19.1c-0.5-4.7,1.3-10.2,3.2-10.4c1.3-0.1,2,0.5,3.8,3.5c1.8,3,2.8,3.9,4.9,3.7
		c3.1-0.3,4.2-3.8,3.7-8.7C236.6,56.5,233.2,50.8,228.6,51.3z"/>
	<path class="st0" d="M287.4,99.9c9.4-0.6,14.4-10.6,13.9-18.5c-0.2-3-1.4-5.4-2.4-5.3c-0.7,0-1,0.7-1.6,3c-1.1,4.5-3.5,8.9-7.2,9.1
		c-3.9,0.3-6.1-3.6-7-18.3c-0.3-4.1-0.3-8-0.3-11.1c2.6-0.1,9.4-0.4,12.3-0.6c1-0.1,1.6-0.6,1.5-1.6c-0.2-2.8-3.8-7.5-14-6.8
		c0-2.4,0-8-0.3-11.8c-0.1-1.3-0.5-1.9-1.5-1.8c-4.4,0.3-18.8,17.1-18.5,21.8c0.1,1.3,0.8,1.9,2.8,1.8l6.2-0.2
		c0,4.5,0.3,11.6,0.6,17.6C273,92.6,278,100.5,287.4,99.9z"/>
	<path class="st0" d="M358.1,87.6c-2.3-0.1-3.2-0.6-3.2-2c-0.1-5.4,0.1-17.6-0.1-26.1c-0.2-8.9-4.3-15.3-14.3-15
		c-7.5,0.2-12.9,5-15.9,11.4l-0.3-12.1c-0.1-5.6,0.5-8.9,0.5-11.7c-0.1-3.8-2.2-6.4-7.7-6.2c-6.5,0.2-11.3,3-11.2,7
		c0,1.7,0.8,2.4,3.3,2.7c2.7,0.3,3.6,1.2,3.6,3.5l1.2,47c0.1,2.3-1.6,2.9-3.2,3.5c-2.3,0.9-3.1,1.8-3.1,3.5
		c0.1,3.6,4.3,5.5,12.2,5.2c8.2-0.2,11.9-2.1,11.7-6.1c0-1.5-0.9-2.3-3.2-3.1c-2.4-0.8-3.2-1.4-3.3-3.4L324.7,62
		c1.8-4,6.1-6.9,10.6-7c5.3-0.1,7.8,2.9,7.9,8.7c0.2,7.2-0.8,21-0.6,26.7c0.1,4.9,2.7,7.1,8.5,7c6.8-0.2,11-3.5,10.9-7.2
		C361.9,88.2,360.6,87.7,358.1,87.6z"/>
	<path class="st0" d="M408.8,79.5c-0.5,0-0.9,0.5-1.9,1.7c-1.6,1.8-7.3,7-14.7,6.9c-5.1-0.1-12.5-3-13-14.4l31.1,0.1
		c0.5-2,1.1-4.9,1.2-8.5c0.2-13.2-7.7-20.7-19.5-20.9c-14.9-0.2-24.5,12.4-24.7,26.9c-0.3,18.1,11,26.2,22.9,26.4
		c11.4,0.2,20.3-5.9,20.4-13.5C410.5,81.3,409.8,79.5,408.8,79.5z M391.2,51.9c4.8,0.1,9,4.1,8.8,12.7c0,1.1-0.1,1.8-0.2,2.4
		l-20.6,0.8C379.8,58.1,384.9,51.8,391.2,51.9z"/>
	<path class="st0" d="M450.6,99.8c8.8,0.7,10.9-1.5,11.2-4.5c0.2-1.9-0.7-3-2.6-4.6c-1.6-1.5-2.3-3.5-2-7.4l3.3-39.4l14.7,39.8
		c0.7,2,1.8,2.8,3.5,2.9c1.8,0.2,2.8-0.6,3.8-2.3l21.2-37l-3.3,38.9c-0.4,4.8-1.5,6.6-3.2,7.7c-2.2,1.3-3.3,2.2-3.4,4.2
		c-0.2,2.9,2.3,5.5,11.2,6.2c8.4,0.7,11.5-1.4,11.7-4.3c0.2-1.9-0.6-2.9-2.6-4.7c-1.5-1.4-2.3-3.3-1.9-8.2l3.1-37.5
		c0.3-3.9,1.2-5.7,3.2-6.9c2.2-1.4,3.2-2.4,3.4-4.3c0.2-2-1.1-4.7-7.7-5.3l-4.4-0.4c-5.2-0.4-8.7,1.5-11.8,7l-16.5,29.8l-11-32.1
		c-2-5.8-5.6-8.5-10.7-8.9l-4.9-0.4c-6-0.5-8.7,1.3-8.9,3.9c-0.2,1.9,0.8,3.1,2.7,4.8c1.7,1.5,2.3,3.4,2,7.3l-3.2,38.3
		c-0.3,4-1.5,5.9-3.2,7c-2.1,1.5-3.2,2.3-3.3,4.2C440.7,96.6,442.1,99.1,450.6,99.8z"/>
	<path class="st0" d="M545.2,109.6c14.4,2,25.5-7.3,27.8-24c2.1-15.3-5.6-26.7-19.1-28.6c-14.3-2-25.5,7.3-27.8,24
		C524,96.3,531.7,107.7,545.2,109.6z M547.9,102.2c-7-1-11.4-8.7-9.6-21.8c1.6-11.7,7-16.9,13-16.1c7,1,11.4,8.7,9.6,21.8
		C559.2,97.8,553.9,103,547.9,102.2z"/>
	<path class="st0" d="M598.3,117.9c14.3,2.6,25.8-6.2,28.8-22.8c2.7-15.2-4.5-27-18-29.4c-14.2-2.5-25.8,6.2-28.8,22.8
		C577.6,103.8,584.8,115.5,598.3,117.9z M601.2,110.7c-7-1.3-11-9.2-8.7-22.1c2.1-11.6,7.6-16.6,13.6-15.5c7,1.3,11,9.2,8.7,22.1
		C612.7,106.8,607.2,111.7,601.2,110.7z"/>
	<path class="st0" d="M640.9,126.2c8.2,1.8,12.1,1,12.9-2.7c0.4-1.6-0.4-2.9-2.2-4.1c-2.3-1.6-2.8-2.2-2.4-3.8l4.1-18.2
		c1.4-6.4,8.3-10.4,14.2-9.1c5.2,1.2,6.8,4.7,5.5,10.4c-1.6,7-5.9,20.1-7.2,25.7c-1.1,4.9,0.9,7.6,6.6,8.9
		c6.3,1.4,11.4-0.4,12.3-4.3c0.4-1.8-0.5-2.8-3-3.5c-2.2-0.7-2.9-1.4-2.6-2.8c1.2-5.2,4.4-17,6.3-25.3c2-8.7-0.5-15.8-10.2-18
		c-8.6-1.9-15.8,3.1-20.5,10.4l-0.8-0.2c0.4-1.7,1.1-4.2,1.7-6.7c1.2-5.5,0.1-7.9-3.5-8.8c-6.8-1.5-12.7,1.9-13.9,6.9
		c-0.3,1.5,0.2,2.5,1.5,2.8c1.1,0.3,1.8,0.1,2.9,0.4c1.3,0.3,1.7,1.5,1.3,3.3l-5.7,25.4c-0.4,1.6-1.4,2.3-4,2.7
		c-2.2,0.3-3.5,1.3-3.9,3C629.6,121.8,633.3,124.5,640.9,126.2z"/>
</g>
</svg>
